<?xml version="1.0" ?><svg data-name="Layer 1" id="Layer_1" viewBox="0 0 512 512" xmlns="http://www.w3.org/2000/svg"><title/><path d="M474.23,235.49l-151-56.29V98.69l40.22,16.68a3.63,3.63,0,1,0,2.79-6.71L256.07,63a3.63,3.63,0,0,0-2.82,0L145.74,108.67a3.64,3.64,0,1,0,2.85,6.69l40.19-17.08V179.2l-151,56.29a3.64,3.64,0,0,0,1.27,7,3.48,3.48,0,0,0,1.27-.23l24.21-9V442.05h-22a3.64,3.64,0,0,0,0,7.28h427a3.64,3.64,0,0,0,0-7.28h-22V233.28l24.21,9a3.48,3.48,0,0,0,1.27.23,3.64,3.64,0,0,0,1.27-7ZM368.94,295.55H143.06v-11.9H368.94Zm-172.89,107h33.63v37.79H196.05Zm33.63-7.28H196.05V357.51h33.63Zm-40.9-41.42V382H143.06V330.85h45.72Zm-45.72,35.37h45.72v51.12H143.06ZM237,353.87a3.64,3.64,0,0,0-3.64-3.64H196.05v-23a3.63,3.63,0,0,0-3.63-3.64H143.06V302.83H368.94V442.05H237Zm132-77.5H143.06V262.05H368.94Zm71.27,165.68h-64V258.42a3.64,3.64,0,0,0-3.64-3.64H139.42a3.64,3.64,0,0,0-3.64,3.64V442.05h-64V230.57l121.9-45.43a3.64,3.64,0,0,0,2.36-3.41V97.3a3.65,3.65,0,0,0-.53-1.89l59.17-25.15L316.27,95.8a3.73,3.73,0,0,0-.32,1.5v84.43a3.64,3.64,0,0,0,2.36,3.41l121.9,45.43Z" style="fill:#FFFFFF"/><path d="M291,116.17c0-.1,0-.21,0-.32a2.07,2.07,0,0,0-.1-.33c0-.11-.08-.23-.13-.35s-.09-.17-.14-.26-.14-.25-.22-.36l0-.08c0-.06-.11-.1-.15-.16a3.83,3.83,0,0,0-.28-.29,2.76,2.76,0,0,0-.27-.23l-.27-.2-.35-.19-.27-.12-.42-.13-.25-.06a4,4,0,0,0-.5,0h-63a4,4,0,0,0-.5,0l-.25.06-.42.13-.26.12a3,3,0,0,0-.36.19l-.27.19c-.09.08-.19.15-.28.24l-.27.29-.15.16a.3.3,0,0,1,0,.08c-.08.11-.15.24-.22.36s-.1.17-.14.26a2.6,2.6,0,0,0-.13.36,1.7,1.7,0,0,0-.1.32,1.92,1.92,0,0,0-.05.32,2.85,2.85,0,0,0,0,.4s0,.06,0,.09v47.25s0,.06,0,.09a2.58,2.58,0,0,0,0,.4,1.64,1.64,0,0,0,.05.32,5.85,5.85,0,0,0,.23.68,2.15,2.15,0,0,0,.14.26,3.28,3.28,0,0,0,.22.37.25.25,0,0,1,0,.07l.11.12a5,5,0,0,0,.39.41l.22.18a3.87,3.87,0,0,0,.43.27l.24.13a3.13,3.13,0,0,0,.54.19,1.52,1.52,0,0,0,.2.06,3.33,3.33,0,0,0,.78.09h62.74a3.33,3.33,0,0,0,.78-.09,1.52,1.52,0,0,0,.2-.06,3.86,3.86,0,0,0,.54-.19l.23-.13a4,4,0,0,0,.44-.27l.21-.18a3.73,3.73,0,0,0,.39-.41,1.36,1.36,0,0,0,.12-.12.25.25,0,0,1,0-.07,3.28,3.28,0,0,0,.22-.37,2.15,2.15,0,0,0,.14-.26,3.62,3.62,0,0,0,.13-.35,2.07,2.07,0,0,0,.1-.33c0-.1,0-.21,0-.32a2.58,2.58,0,0,0,0-.4s0-.05,0-.09V116.66s0-.06,0-.09A2.85,2.85,0,0,0,291,116.17ZM228.26,124,250,140.29l-21.69,16.33Zm7.24-3.65h41L256,135.74ZM256,144.84l20.5,15.44h-41Zm6-4.55L283.73,124v32.67Z" style="fill:#FFFFFF"/></svg>